<svg width="43" height="46" viewBox="0 0 43 46" fill="none" xmlns="http://www.w3.org/2000/svg">
<rect x="1.5" y="1.5" width="39.7656" height="43" rx="7.5" fill="#2262C6" stroke="white" stroke-width="3"/>
<g clip-path="url(#clip0_641_379)">
<path d="M-24.1172 10L-20.3672 13.75L-24.1172 17.5L-20.3672 21.25L-24.1172 25L-20.3672 28.75L-24.1172 32.5H-19.1172C-19.1172 34.4891 -18.327 36.3968 -16.9205 37.8033C-15.514 39.2098 -13.6063 40 -11.6172 40C-9.62807 40 -7.72041 39.2098 -6.31387 37.8033C-4.90734 36.3968 -4.11716 34.4891 -4.11716 32.5H10.8828C10.8828 34.4891 11.673 36.3968 13.0795 37.8033C14.4861 39.2098 16.3937 40 18.3828 40C20.3719 40 22.2796 39.2098 23.6861 37.8033C25.0926 36.3968 25.8828 34.4891 25.8828 32.5H30.8828V15C30.8828 12.225 28.6578 10 25.8828 10H-24.1172ZM-16.6172 13.75H-10.3672V20H-16.6172V13.75ZM-6.61717 13.75H3.38283V20H-6.61717V13.75ZM7.13281 13.75H17.1328V20H7.13281V13.75ZM20.8828 13.75H27.1328V27.5L20.8828 22.5V13.75ZM-11.6172 28.75C-10.6226 28.75 -9.66879 29.1451 -8.96553 29.8483C-8.26225 30.5516 -7.86716 31.5055 -7.86716 32.5C-7.86716 33.4946 -8.26225 34.4484 -8.96553 35.1517C-9.66879 35.8549 -10.6226 36.25 -11.6172 36.25C-12.6117 36.25 -13.5656 35.8549 -14.2688 35.1517C-14.9721 34.4484 -15.3672 33.4946 -15.3672 32.5C-15.3672 31.5055 -14.9721 30.5516 -14.2688 29.8483C-13.5656 29.1451 -12.6117 28.75 -11.6172 28.75ZM18.3828 28.75C19.3774 28.75 20.3312 29.1451 21.0345 29.8483C21.7377 30.5516 22.1328 31.5055 22.1328 32.5C22.1328 33.4946 21.7377 34.4484 21.0345 35.1517C20.3312 35.8549 19.3774 36.25 18.3828 36.25C17.3883 36.25 16.4344 35.8549 15.7312 35.1517C15.0279 34.4484 14.6328 33.4946 14.6328 32.5C14.6328 31.5055 15.0279 30.5516 15.7312 29.8483C16.4344 29.1451 17.3883 28.75 18.3828 28.75Z" fill="white"/>
</g>
<defs>
<clipPath id="clip0_641_379">
<rect width="34.5" height="37.7344" fill="white" transform="translate(3.79688 5.39062)"/>
</clipPath>
</defs>
</svg>
